<?xml version="1.0" encoding="utf-8"?>
<!-- Generator: Adobe Illustrator 16.0.0, SVG Export Plug-In . SVG Version: 6.00 Build 0)  -->
<!DOCTYPE svg PUBLIC "-//W3C//DTD SVG 1.1//EN" "http://www.w3.org/Graphics/SVG/1.1/DTD/svg11.dtd">
<svg version="1.1" id="Layer_1" xmlns="http://www.w3.org/2000/svg" xmlns:xlink="http://www.w3.org/1999/xlink" x="0px" y="0px"
	 width="510.35px" height="126.991px" viewBox="0 0 510.35 126.991" enable-background="new 0 0 510.35 126.991"
	 xml:space="preserve">
<path fill="#FFFFFF" d="M27.714,126.411h-6.719l-5.535-9.281c-0.5-0.854-0.987-1.583-1.462-2.187
	c-0.475-0.604-0.958-1.101-1.45-1.486c-0.492-0.388-1.027-0.669-1.607-0.847c-0.581-0.177-1.233-0.266-1.958-0.266h-2.32v14.066
	H0.936V91.753h11.407c1.627,0,3.126,0.193,4.496,0.581c1.369,0.386,2.562,0.97,3.577,1.752c1.015,0.781,1.809,1.756,2.381,2.924
	c0.571,1.168,0.858,2.534,0.858,4.097c0,1.225-0.182,2.348-0.544,3.371c-0.362,1.023-0.877,1.934-1.546,2.73
	c-0.669,0.799-1.475,1.479-2.417,2.043c-0.941,0.564-2.001,0.999-3.177,1.306v0.097c0.628,0.354,1.176,0.745,1.643,1.171
	c0.467,0.428,0.91,0.867,1.329,1.318s0.834,0.963,1.245,1.534c0.411,0.572,0.866,1.236,1.366,1.993L27.714,126.411z M6.664,96.417
	v11.264h4.786c0.885,0,1.703-0.138,2.453-0.411c0.749-0.274,1.398-0.668,1.945-1.185c0.547-0.516,0.975-1.144,1.281-1.885
	s0.459-1.571,0.459-2.489c0-1.659-0.524-2.957-1.571-3.892c-1.048-0.935-2.555-1.402-4.52-1.402H6.664z"/>
<path fill="#FFFFFF" d="M58.19,124.042c-3.609,1.966-7.628,2.949-12.06,2.949c-5.124,0-9.272-1.596-12.446-4.786
	s-4.762-7.411-4.762-12.663c0-5.366,1.736-9.769,5.208-13.209s7.883-5.16,13.232-5.16c3.851,0,7.09,0.564,9.716,1.691v5.922
	c-2.658-1.772-5.824-2.658-9.499-2.658c-3.689,0-6.714,1.216-9.075,3.648c-2.36,2.434-3.541,5.583-3.541,9.45
	c0,3.98,1.015,7.11,3.045,9.39c2.03,2.281,4.786,3.421,8.266,3.421c2.385,0,4.447-0.46,6.187-1.378v-8.242h-7.298v-4.834H58.19
	V124.042z"/>
<path fill="#FFFFFF" d="M93.502,126.411h-5.777v-15.033H71.412v15.033h-5.753V91.753h5.753v14.573h16.313V91.753h5.777V126.411z"/>
<path fill="#FFFFFF" d="M118.25,90.979v35.432h-5.607V97.843c-1.015,0.726-2.107,1.342-3.275,1.85c-1.169,0.507-2.502,0.955-4,1.341
	v-4.785c0.934-0.306,1.837-0.628,2.707-0.967c0.87-0.339,1.728-0.716,2.574-1.136c0.846-0.419,1.7-0.886,2.562-1.401
	c0.862-0.516,1.752-1.104,2.671-1.765H118.25z"/>
<path fill="#FFFFFF" d="M129.271,126.942c-0.967,0-1.789-0.317-2.465-0.955c-0.677-0.636-1.015-1.396-1.015-2.283
	c0-0.901,0.337-1.676,1.015-2.32c0.677-0.645,1.499-0.967,2.465-0.967c0.983,0,1.816,0.322,2.501,0.967
	c0.685,0.645,1.027,1.419,1.027,2.32c0,0.887-0.343,1.647-1.027,2.283C131.087,126.625,130.254,126.942,129.271,126.942z"/>
<path fill="#FFFFFF" d="M159.36,126.411h-21.751v-2.684c0-1.095,0.153-2.122,0.459-3.081c0.306-0.958,0.716-1.861,1.232-2.706
	c0.516-0.847,1.12-1.645,1.813-2.394c0.692-0.749,1.434-1.475,2.223-2.175c0.79-0.701,1.595-1.378,2.417-2.03
	c0.822-0.652,1.627-1.31,2.417-1.97c0.741-0.629,1.418-1.245,2.03-1.849c0.612-0.604,1.136-1.229,1.571-1.873
	c0.436-0.646,0.774-1.325,1.015-2.043c0.242-0.716,0.363-1.494,0.363-2.332c0-0.918-0.142-1.72-0.423-2.404
	c-0.282-0.685-0.677-1.258-1.184-1.717s-1.108-0.806-1.8-1.038c-0.693-0.234-1.45-0.352-2.271-0.352
	c-1.419,0-2.861,0.331-4.327,0.991c-1.466,0.661-2.876,1.651-4.229,2.973v-5.39c0.708-0.531,1.425-0.994,2.15-1.39
	c0.725-0.395,1.475-0.726,2.248-0.991c0.774-0.265,1.586-0.463,2.441-0.591c0.854-0.13,1.765-0.194,2.732-0.194
	c1.563,0,2.98,0.205,4.253,0.616s2.361,1.016,3.263,1.813c0.902,0.798,1.599,1.793,2.091,2.985s0.737,2.562,0.737,4.108
	c0,1.401-0.173,2.663-0.52,3.782c-0.347,1.12-0.838,2.163-1.474,3.13c-0.637,0.968-1.406,1.886-2.308,2.755
	c-0.903,0.871-1.91,1.766-3.021,2.684c-0.936,0.757-1.866,1.494-2.792,2.212c-0.927,0.717-1.761,1.417-2.502,2.102
	c-0.741,0.686-1.341,1.369-1.8,2.055c-0.459,0.685-0.689,1.374-0.689,2.066v0.12h15.637V126.411z"/>
<path fill="#FFFFFF" d="M171.604,126.411V91.753h10.006c12.777,0,19.166,5.631,19.166,16.894c0,5.35-1.772,9.647-5.317,12.895
	c-3.545,3.246-8.298,4.87-14.26,4.87H171.604z M177.333,96.635v24.918h4.592c4.044,0,7.19-1.111,9.438-3.335
	c2.247-2.223,3.371-5.365,3.371-9.426c0-8.104-4.197-12.157-12.592-12.157H177.333z"/>
<path fill="#FFFFFF" d="M217.453,126.991c-3.818,0-6.868-1.156-9.147-3.469c-2.281-2.312-3.42-5.378-3.42-9.196
	c0-4.156,1.188-7.403,3.565-9.74c2.376-2.335,5.579-3.505,9.606-3.505c3.867,0,6.88,1.137,9.039,3.408
	c2.159,2.272,3.239,5.423,3.239,9.45c0,3.948-1.164,7.11-3.493,9.487C224.514,125.803,221.384,126.991,217.453,126.991z
	 M217.719,105.553c-2.191,0-3.924,0.766-5.197,2.297c-1.273,1.53-1.909,3.642-1.909,6.331c0,2.596,0.644,4.638,1.934,6.127
	c1.289,1.491,3.013,2.236,5.172,2.236c2.208,0,3.903-0.733,5.087-2.199c1.185-1.466,1.776-3.553,1.776-6.261
	c0-2.722-0.591-4.824-1.776-6.308C221.622,106.295,219.926,105.553,217.719,105.553z"/>
<path fill="#FFFFFF" d="M253.754,125.275c-1.982,1.143-4.326,1.716-7.033,1.716c-3.674,0-6.638-1.148-8.894-3.444
	c-2.256-2.296-3.384-5.272-3.384-8.93c0-4.077,1.212-7.353,3.638-9.825c2.424-2.474,5.667-3.711,9.727-3.711
	c2.255,0,4.246,0.396,5.97,1.186v5.22c-1.724-1.288-3.561-1.934-5.51-1.934c-2.369,0-4.311,0.802-5.824,2.405
	c-1.515,1.604-2.272,3.702-2.272,6.296c0,2.562,0.713,4.585,2.139,6.066c1.425,1.482,3.339,2.224,5.74,2.224
	c2.013,0,3.916-0.717,5.704-2.151V125.275z"/>
<path fill="#FFFFFF" d="M280.896,126.411h-5.607v-3.916h-0.097c-1.628,2.997-4.157,4.496-7.589,4.496
	c-5.85,0-8.772-3.514-8.772-10.538v-14.791h5.606v14.211c0,4.447,1.716,6.671,5.148,6.671c1.659,0,3.024-0.612,4.097-1.837
	c1.07-1.225,1.606-2.828,1.606-4.81v-14.235h5.607V126.411z"/>
<path fill="#FFFFFF" d="M325.195,126.411h-5.606v-13.486c0-2.595-0.366-4.472-1.1-5.632c-0.733-1.159-1.97-1.74-3.71-1.74
	c-1.467,0-2.712,0.733-3.734,2.2c-1.023,1.466-1.535,3.223-1.535,5.268v13.391h-5.631v-13.946c0-4.607-1.627-6.912-4.882-6.912
	c-1.515,0-2.76,0.694-3.733,2.078c-0.976,1.387-1.462,3.184-1.462,5.39v13.391h-5.608v-24.749h5.608v3.916h0.097
	c1.788-2.997,4.39-4.497,7.806-4.497c1.707,0,3.202,0.473,4.483,1.415s2.154,2.18,2.622,3.71c1.837-3.416,4.576-5.125,8.217-5.125
	c5.446,0,8.169,3.36,8.169,10.079V126.411z"/>
<path fill="#FFFFFF" d="M352.99,115.559h-16.87c0.064,2.288,0.77,4.053,2.115,5.294c1.345,1.241,3.193,1.86,5.546,1.86
	c2.643,0,5.067-0.789,7.275-2.368v4.52c-2.257,1.418-5.237,2.127-8.942,2.127c-3.642,0-6.498-1.124-8.568-3.372
	s-3.105-5.409-3.105-9.486c0-3.851,1.14-6.988,3.42-9.414c2.279-2.424,5.111-3.638,8.495-3.638c3.385,0,6.002,1.089,7.855,3.264
	c1.853,2.175,2.779,5.197,2.779,9.063V115.559z M347.576,111.595c-0.016-2.014-0.492-3.58-1.426-4.7
	c-0.935-1.12-2.224-1.68-3.867-1.68c-1.611,0-2.977,0.589-4.097,1.764c-1.12,1.177-1.809,2.716-2.066,4.616H347.576z"/>
<path fill="#FFFFFF" d="M380.374,126.411h-5.608v-13.946c0-4.624-1.636-6.936-4.905-6.936c-1.708,0-3.118,0.641-4.23,1.921
	c-1.111,1.281-1.667,2.896-1.667,4.846v14.115h-5.631v-24.749h5.631v4.108h0.097c1.853-3.125,4.527-4.689,8.023-4.689
	c2.691,0,4.745,0.876,6.164,2.623c1.417,1.749,2.127,4.274,2.127,7.577V126.411z"/>
<path fill="#FFFFFF" d="M400.264,126.146c-1.096,0.547-2.537,0.821-4.326,0.821c-4.801,0-7.202-2.304-7.202-6.912v-13.994h-4.133
	v-4.398h4.133v-5.728l5.608-1.596v7.323h5.92v4.398h-5.92v12.374c0,1.467,0.265,2.514,0.797,3.143
	c0.531,0.628,1.418,0.942,2.659,0.942c0.95,0,1.772-0.273,2.464-0.822V126.146z"/>
<path fill="#FFFFFF" d="M424.094,126.411h-5.438v-3.867h-0.097c-1.708,2.964-4.215,4.447-7.517,4.447
	c-2.434,0-4.338-0.661-5.716-1.982c-1.377-1.321-2.066-3.069-2.066-5.244c0-4.673,2.691-7.396,8.072-8.17l7.347-1.038
	c0-3.529-1.676-5.293-5.026-5.293c-2.949,0-5.607,1.015-7.977,3.045v-4.905c2.611-1.548,5.623-2.322,9.039-2.322
	c6.252,0,9.378,3.079,9.378,9.233V126.411z M418.68,114.254l-5.195,0.726c-1.612,0.209-2.824,0.6-3.638,1.172
	s-1.221,1.575-1.221,3.008c0,1.049,0.374,1.906,1.124,2.575s1.752,1.003,3.01,1.003c1.707,0,3.12-0.601,4.241-1.801
	c1.119-1.2,1.679-2.71,1.679-4.531V114.254z"/>
<path fill="#FFFFFF" d="M443.985,126.146c-1.097,0.547-2.538,0.821-4.326,0.821c-4.802,0-7.202-2.304-7.202-6.912v-13.994h-4.134
	v-4.398h4.134v-5.728l5.606-1.596v7.323h5.922v4.398h-5.922v12.374c0,1.467,0.266,2.514,0.798,3.143
	c0.531,0.628,1.418,0.942,2.658,0.942c0.95,0,1.772-0.273,2.466-0.822V126.146z"/>
<path fill="#FFFFFF" d="M451.646,96.466c-0.919,0-1.704-0.298-2.356-0.895c-0.652-0.596-0.979-1.354-0.979-2.271
	c0-0.919,0.327-1.685,0.979-2.297s1.438-0.919,2.356-0.919c0.95,0,1.756,0.307,2.416,0.919c0.661,0.612,0.992,1.378,0.992,2.297
	c0,0.869-0.331,1.614-0.992,2.234C453.402,96.156,452.597,96.466,451.646,96.466z M454.426,126.411h-5.607v-24.749h5.607V126.411z"
	/>
<path fill="#FFFFFF" d="M472.722,126.991c-3.819,0-6.868-1.156-9.148-3.469c-2.28-2.312-3.42-5.378-3.42-9.196
	c0-4.156,1.188-7.403,3.565-9.74c2.377-2.335,5.578-3.505,9.607-3.505c3.867,0,6.879,1.137,9.039,3.408
	c2.158,2.272,3.238,5.423,3.238,9.45c0,3.948-1.164,7.11-3.493,9.487C479.782,125.803,476.652,126.991,472.722,126.991z
	 M472.987,105.553c-2.191,0-3.923,0.766-5.196,2.297c-1.272,1.53-1.909,3.642-1.909,6.331c0,2.596,0.645,4.638,1.934,6.127
	c1.289,1.491,3.013,2.236,5.172,2.236c2.207,0,3.902-0.733,5.088-2.199c1.184-1.466,1.775-3.553,1.775-6.261
	c0-2.722-0.592-4.824-1.775-6.308C476.89,106.295,475.194,105.553,472.987,105.553z"/>
<path fill="#FFFFFF" d="M510.35,126.411h-5.608v-13.946c0-4.624-1.636-6.936-4.905-6.936c-1.708,0-3.118,0.641-4.229,1.921
	c-1.112,1.281-1.668,2.896-1.668,4.846v14.115h-5.631v-24.749h5.631v4.108h0.097c1.853-3.125,4.528-4.689,8.024-4.689
	c2.69,0,4.744,0.876,6.163,2.623c1.417,1.749,2.127,4.274,2.127,7.577V126.411z"/>
<path id="path6959" fill="#9B9EA1" d="M475.961,79.575c-5.592,0-10.324-1.833-13.908-5.407c-7.957-7.911-9.105-22.563-9.105-30.589
	c0-10.836,2.225-35.996,23.014-35.996c20.791,0,23.084,25.16,23.084,35.996C499.045,54.394,496.752,79.575,475.961,79.575
	L475.961,79.575L475.961,79.575z M475.961,0.149c-19.787-0.015-31.115,15.83-31.115,43.43c0,27.585,11.328,43.422,31.115,43.422
	c11.256,0,19.645-4.879,24.949-14.495c5.09-9.174,6.166-20.795,6.166-28.927C507.076,30.51,503.992,0.149,475.961,0.149"/>
<path id="path6961" fill="#9B9EA1" d="M409.145,79.575c-11.756,0-21.006-9.423-21.006-21.43c0-12.469,9.033-21.886,21.006-21.886
	c5.447,0,10.539,2.098,14.338,5.907c4.16,4.115,6.523,9.95,6.523,15.979C430.006,70.151,420.83,79.575,409.145,79.575z
	 M409.145,28.827c-8.961,0-17.277,4.38-22.297,11.613c1.004-15.744,6.094-32.857,23.229-32.857c9.607,0,16.918,6.228,18.496,15.865
	l0.287,1.505h7.959l-0.145-1.998c-1.578-14.06-11.758-22.819-26.598-22.819c-26.023,0-31.545,25.773-31.545,47.396
	c0,25.823,10.611,39.47,30.611,39.47c16.49,0,28.893-12.405,28.893-28.855C438.037,41.161,425.92,28.827,409.145,28.827"/>
<path id="path6963" fill="#9B9EA1" d="M358.889,40.525c7.025-3.217,11.471-10.208,11.471-18.439c0-5.821-1.936-10.687-5.734-14.496
	C359.82,2.768,351.791,0,342.83,0c-14.77,0-24.949,8.738-26.527,22.828l-0.215,1.982h7.959l0.285-1.491
	c1.578-9.659,8.891-15.894,18.496-15.894c9.68,0,19.502,5.036,19.502,14.66c0,4.108-1.291,7.447-3.871,9.887
	c-4.088,3.959-11.758,4.943-15.701,4.943c-1.434,0-3.514,0.036-5.594,0.043c-0.07,2.012-0.07,5.885,0,7.832
	c1.293,0,5.594,0.008,5.594,0.008c7.455,0.063,13.264,1.604,16.92,5c3.01,2.789,4.516,6.685,4.516,11.585
	c0,11.842-10.754,18.041-21.365,18.041c-6.953,0-12.617-2.104-16.416-6.049c-3.799-3.896-5.664-9.524-5.377-16.229l0.072-1.877
	h-8.031l-0.07,1.727c-0.432,8.889,2.006,16.336,6.955,21.536c5.232,5.443,13.189,8.326,22.867,8.326
	c17.852,0,29.395-9.994,29.395-25.475C372.223,51.59,367.133,43.843,358.889,40.525"/>
<path id="path6965" fill="#94C242" d="M293.291,84.932l-32.047-43.407l29.25-39.449h-10.969l-23.802,32.18l-23.802-32.18h-10.896
	l29.178,39.456l-31.975,43.4h10.969l26.525-35.924l26.598,35.924H293.291"/>
<path id="path6967" fill="#94C242" d="M75.061,84.932L43.086,41.524l29.18-39.449H61.367l-23.801,32.18L13.764,2.075H2.795
	l29.251,39.456L0,84.932h10.969l26.598-35.924l26.525,35.924H75.061"/>
<path id="path6969" fill="#94C242" d="M113.416,76.279c0,0-20.646,0-24.447,0V46.133c3.801,0,24.447,0,24.447,0
	c9.32,0,20.361,2.532,20.361,14.417C133.777,74.218,121.016,76.279,113.416,76.279L113.416,76.279z M88.969,10.729
	c3.801,0,24.447,0,24.447,0c6.596,0,17.708,1.655,17.708,13.176c0,8.717-6.452,13.896-17.708,13.896c0,0-20.646,0-24.447,0V10.729z
	 M135.928,44.664c-1.721-1.491-3.586-2.618-5.449-3.46c6.021-3.268,9.965-9.417,9.965-16.586c0-5.286-1.936-22.543-27.027-22.543
	H79.648v35.739c0,0-10.896,0-11.255,0c-1.505,1.884-4.804,6.435-6.094,8.296c1.219,0,17.349,0,17.349,0v38.821h33.768
	c18.354,0,29.752-9.267,29.752-24.189C143.168,54.223,140.659,48.672,135.928,44.664"/>
<path id="path6971" fill="#94C242" d="M187.115,77.991c-17.852,0-30.326-14.188-30.326-34.534c0-20.323,12.475-34.512,30.326-34.512
	c17.779,0,30.183,14.188,30.183,34.512C217.298,63.803,204.895,77.991,187.115,77.991L187.115,77.991z M187.115,0.178
	c-23.442,0-39.789,17.792-39.789,43.28c0,25.502,16.346,43.301,39.789,43.301c23.299,0,39.646-17.799,39.646-43.301
	C226.761,17.97,210.414,0.178,187.115,0.178"/>
</svg>
